<svg version="1.1" width="1920" height="1080" xmlns="http://www.w3.org/2000/svg">
<rect x="397" y="542" width="19" height="8" fill="#6f5" />
<polygon points="450,321 447,329 441,335 432,338 424,335 418,329 416,320 418,312 424,306 433,304 441,306 447,312" fill="#14f" stroke-width="3" />
<circle cx="234" cy="146" r="11" fill="#964" />
<polygon points="1717,49 1711,56 1702,53 1702,44 1711,41" fill="#25f" stroke-width="1" />
<polygon points="189,85 183,98 169,104 156,98 151,84 156,71 170,66 183,71" fill="#6b2" stroke-width="3" /><polygon points="187,92 177,102 162,102 152,92 152,77 162,67 177,67 187,77" fill="#6b2" stroke-width="3" />
<polygon points="593,385 588,389 585,384 589,381" fill="#d16" stroke-width="5" />
<polygon points="692,12 684,19 678,11 685,5" fill="#991" stroke-width="4" />
<polygon points="743,96 736,102 731,95 737,90" fill="#fec" stroke-width="2" /><polygon points="741,100 732,100 732,91 741,91" fill="#fec" stroke-width="2" />
<ellipse cx="1771" cy="1038" rx="3" ry="11" fill="#920" />
<line x1="247" y1="76" x2="241" y2="72" stroke-width="4" stroke="#6de" />
<polygon points="1048,928" fill="#e27" stroke-width="4" /><polygon points="1036,927" fill="#e27" stroke-width="4" />
<polygon points="1328,178 1327,180 1324,181 1321,181 1320,179 1320,176 1322,174 1324,174 1327,175" fill="#be4" stroke-width="1" />
<circle cx="1469" cy="821" r="9" fill="#c8a" />
<ellipse cx="375" cy="920" rx="20" ry="4" fill="#9b7" />
<polygon points="1755,557 1749,566 1738,566 1733,556 1738,547 1749,547" fill="#869" stroke-width="1" /><polygon points="1753,562 1743,568 1734,562 1734,551 1744,546 1753,551" fill="#869" stroke-width="1" />
<polygon points="49,590 48,590 47,591 47,590 47,589 47,589 48,589 48,589" fill="#e24" stroke-width="1" />
<circle cx="29" cy="1065" r="18" fill="#408" />
<polygon points="461,325 450,335 441,324 451,315" fill="#d57" stroke-width="2" /><polygon points="458,332 443,332 443,317 458,317" fill="#d57" stroke-width="2" />
<ellipse cx="863" cy="1060" rx="14" ry="8" fill="#436" />
<polygon points="929,533" fill="#80f" stroke-width="4" /><polygon points="923,532" fill="#80f" stroke-width="4" />
<polygon points="813,541 806,549 796,546 796,535 806,532" fill="#09d" stroke-width="5" /><polygon points="811,546 801,549 795,540 801,532 811,535" fill="#09d" stroke-width="5" />
<ellipse cx="117" cy="1037" rx="1" ry="8" fill="#f45" />
<polygon points="640,465 636,473 627,477 619,473 616,464 619,456 628,453 636,456" fill="#961" stroke-width="2" /><polygon points="639,469 632,476 623,476 616,469 616,460 623,453 632,453 639,460" fill="#961" stroke-width="2" />
<rect x="1699" y="394" width="15" height="17" fill="#49c" />
<circle cx="1449" cy="328" r="15" fill="#7d6" />
<rect x="1451" y="916" width="2" height="3" fill="#343" />
<polygon points="562,17 548,24 548,9" fill="#fe1" stroke-width="3" />
<rect x="1666" y="134" width="4" height="14" fill="#06a" />
<circle cx="1844" cy="366" r="2" fill="#bec" />
<rect x="726" y="685" width="10" height="15" fill="#7d4" />
<line x1="298" y1="845" x2="289" y2="841" stroke-width="4" stroke="#5f7" />
<ellipse cx="1910" cy="531" rx="16" ry="3" fill="#631" />
<polygon points="358,362 356,364 353,364 352,361 353,359 356,359" fill="#38d" stroke-width="3" /><polygon points="357,363 354,365 352,363 352,360 355,359 357,360" fill="#38d" stroke-width="3" />
<ellipse cx="411" cy="93" rx="11" ry="5" fill="#02f" />
<rect x="1438" y="54" width="13" height="1" fill="#de0" />
<polygon points="699,1051 698,1053 695,1054 693,1053 693,1050 693,1048 696,1048 698,1048" fill="#230" stroke-width="1" /><polygon points="698,1052 697,1053 694,1053 693,1052 693,1049 694,1048 697,1048 698,1049" fill="#230" stroke-width="1" />
<circle cx="1391" cy="1076" r="20" fill="#25b" />
<polygon points="1749,775 1741,779 1741,770" fill="#2da" stroke-width="5" />
<polygon points="229,576 228,577 228,578 226,578 225,578 224,578 223,577 223,576 223,575 223,574 224,573 225,573 226,573 228,573 228,574" fill="#c5d" stroke-width="1" />
<polygon points="1468,628 1467,629 1466,631 1464,632 1462,633 1461,632 1459,631 1458,629 1458,627 1458,626 1459,624 1461,623 1463,623 1464,623 1466,624 1467,626" fill="#5d0" stroke-width="2" />
<rect x="416" y="788" width="4" height="1" fill="#8ca" />
<ellipse cx="543" cy="802" rx="13" ry="11" fill="#3b5" />
<line x1="1536" y1="32" x2="1549" y2="29" stroke-width="4" stroke="#419" />
<ellipse cx="383" cy="983" rx="2" ry="12" fill="#1ec" />
<polygon points="633,795 632,798 630,800 627,801 624,801 621,800 619,798 619,794 619,791 621,789 624,788 627,788 630,789 632,791" fill="#991" stroke-width="3" />
<polygon points="1090,684 1085,696 1072,701 1060,696 1056,683 1060,671 1073,667 1085,671" fill="#64b" stroke-width="4" />
<rect x="1857" y="771" width="17" height="7" fill="#8cf" />
<circle cx="249" cy="298" r="13" fill="#e40" />
<ellipse cx="569" cy="422" rx="6" ry="20" fill="#b7d" />
<rect x="1860" y="81" width="14" height="18" fill="#6f5" />
<polygon points="1479,404 1472,418 1456,421 1444,411 1444,396 1456,386 1472,389" fill="#fd6" stroke-width="4" />
<ellipse cx="494" cy="927" rx="3" ry="3" fill="#c78" />
<line x1="318" y1="227" x2="319" y2="239" stroke-width="3" stroke="#346" />
<polygon points="1628,343" fill="#ea2" stroke-width="4" /><polygon points="1612,342" fill="#ea2" stroke-width="4" />
<rect x="1037" y="1008" width="13" height="5" fill="#64f" />
<ellipse cx="1252" cy="287" rx="2" ry="19" fill="#ce4" />
<polygon points="1765,1017 1751,1016" fill="#8c0" stroke-width="1" /><polygon points="1757,1024 1758,1010" fill="#8c0" stroke-width="1" />
<ellipse cx="1734" cy="380" rx="3" ry="12" fill="#559" />
<circle cx="326" cy="26" r="15" fill="#802" />
<polygon points="768,469 766,468" fill="#8f8" stroke-width="5" /><polygon points="766,470 767,468" fill="#8f8" stroke-width="5" />
<line x1="1476" y1="251" x2="1460" y2="247" stroke-width="3" stroke="#4fb" />
<polygon points="757,896 752,905 742,910 733,905 729,895 733,886 743,882 752,886" fill="#923" stroke-width="5" /><polygon points="755,901 748,908 737,908 730,901 730,890 737,883 748,883 755,890" fill="#923" stroke-width="5" />
<polygon points="243,886 239,893 231,897 224,893 221,885 224,878 232,875 239,878" fill="#b4f" stroke-width="3" /><polygon points="242,890 236,896 227,896 221,890 221,881 227,875 236,875 242,881" fill="#b4f" stroke-width="3" />
<circle cx="1819" cy="289" r="6" fill="#5a2" />
<rect x="1040" y="486" width="14" height="2" fill="#229" />
<ellipse cx="1510" cy="616" rx="11" ry="6" fill="#f73" />
<circle cx="1707" cy="259" r="8" fill="#d63" />
<line x1="1532" y1="269" x2="1540" y2="259" stroke-width="2" stroke="#9a6" />
<polygon points="532,402 530,407 527,411 523,414 517,416 512,414 508,411 505,407 504,401 505,396 508,392 512,389 518,388 523,389 527,392 530,396" fill="#3f3" stroke-width="2" />
<line x1="377" y1="10" x2="367" y2="-9" stroke-width="4" stroke="#a03" />
<line x1="866" y1="444" x2="860" y2="426" stroke-width="4" stroke="#7c7" />
<rect x="30" y="272" width="5" height="2" fill="#ee7" />
<polygon points="404,601 402,601 402,600" fill="#4e8" stroke-width="3" /><polygon points="403,601 402,600 403,600" fill="#4e8" stroke-width="3" />
<polygon points="602,581 593,595 576,595 568,580 576,566 593,566" fill="#1ff" stroke-width="5" />
<ellipse cx="1510" cy="445" rx="10" ry="7" fill="#6dc" />
<circle cx="942" cy="55" r="10" fill="#de9" />
<circle cx="1387" cy="36" r="17" fill="#abb" />
<polygon points="1924,1071 1911,1088 1891,1081 1891,1060 1911,1053" fill="#c71" stroke-width="5" /><polygon points="1920,1081 1900,1088 1888,1070 1900,1053 1920,1060" fill="#c71" stroke-width="5" />
<circle cx="1312" cy="742" r="6" fill="#545" />
<rect x="662" y="921" width="0" height="5" fill="#e7e" />
<polygon points="1056,373" fill="#ddf" stroke-width="1" /><polygon points="1018,372" fill="#ddf" stroke-width="1" />
<ellipse cx="769" cy="138" rx="10" ry="3" fill="#b95" />
<circle cx="559" cy="665" r="8" fill="#1b5" />
<circle cx="1210" cy="1013" r="11" fill="#eff" />
<ellipse cx="1143" cy="497" rx="1" ry="7" fill="#be9" />
<polygon points="777,381 751,395 751,366" fill="#323" stroke-width="4" />
<polygon points="1250,110 1245,115 1239,113 1239,106 1245,104" fill="#f83" stroke-width="3" /><polygon points="1248,113 1242,115 1238,109 1242,104 1248,106" fill="#f83" stroke-width="3" />
<polygon points="970,879 966,886 958,890 951,886 948,878 951,871 959,868 966,871" fill="#626" stroke-width="1" /><polygon points="969,883 963,889 954,889 948,883 948,874 954,868 963,868 969,874" fill="#626" stroke-width="1" />
<rect x="1619" y="431" width="13" height="17" fill="#763" />
<ellipse cx="734" cy="624" rx="7" ry="14" fill="#764" />
<polygon points="17,211 15,218 10,224 3,227 -4,227 -11,224 -16,218 -17,210 -16,203 -11,197 -4,194 3,194 10,197 15,203" fill="#5d1" stroke-width="5" />
<line x1="292" y1="478" x2="298" y2="475" stroke-width="1" stroke="#328" />
<polygon points="1663,261 1658,263 1658,258" fill="#19f" stroke-width="3" />
<polygon points="1035,803 1034,806 1031,808 1028,809 1025,808 1023,806 1023,802 1023,799 1026,797 1029,797 1031,797 1034,800" fill="#420" stroke-width="1" />
<ellipse cx="1342" cy="199" rx="4" ry="9" fill="#747" />
<line x1="1558" y1="210" x2="1567" y2="198" stroke-width="5" stroke="#491" />
<ellipse cx="1832" cy="1010" rx="5" ry="18" fill="#185" />
<polygon points="654,942 641,959 621,952 621,931 641,924" fill="#2b7" stroke-width="2" /><polygon points="650,952 630,959 618,941 630,924 650,931" fill="#2b7" stroke-width="2" />
<line x1="1761" y1="183" x2="1776" y2="202" stroke-width="3" stroke="#ae0" />
<polygon points="989,577 985,582 979,582 977,576 980,571 985,571" fill="#324" stroke-width="3" /><polygon points="988,580 982,583 977,580 977,573 983,571 988,574" fill="#324" stroke-width="3" />
<ellipse cx="37" cy="919" rx="19" ry="8" fill="#845" />
<circle cx="75" cy="195" r="2" fill="#821" />
<ellipse cx="1590" cy="706" rx="11" ry="2" fill="#1fc" />
<circle cx="1817" cy="710" r="11" fill="#f9f" />
<ellipse cx="1688" cy="680" rx="16" ry="12" fill="#117" />
<line x1="808" y1="388" x2="814" y2="396" stroke-width="4" stroke="#994" />
<ellipse cx="121" cy="471" rx="16" ry="13" fill="#6b2" />
<rect x="1195" y="373" width="4" height="2" fill="#abf" />
<rect x="330" y="1029" width="19" height="1" fill="#eb7" />
<polygon points="1258,345 1256,352 1251,359 1244,362 1235,362 1228,359 1223,352 1222,344 1223,337 1228,330 1235,327 1244,327 1251,330 1256,337" fill="#7e8" stroke-width="1" />
<line x1="1715" y1="613" x2="1727" y2="628" stroke-width="2" stroke="#105" />
<circle cx="1916" cy="107" r="2" fill="#d07" />
<ellipse cx="1469" cy="557" rx="20" ry="15" fill="#296" />
<line x1="539" y1="690" x2="532" y2="705" stroke-width="5" stroke="#129" />
<ellipse cx="1680" cy="166" rx="15" ry="5" fill="#181" />
<polygon points="314,1073 278,1072" fill="#328" stroke-width="3" />
<line x1="456" y1="826" x2="461" y2="845" stroke-width="4" stroke="#282" />
<circle cx="1630" cy="1024" r="4" fill="#6a7" />
<polygon points="203,944" fill="#822" stroke-width="3" /><polygon points="163,943" fill="#822" stroke-width="3" />
<polygon points="1463,415 1447,430 1433,414 1448,400" fill="#6fd" stroke-width="1" /><polygon points="1458,425 1437,425 1437,404 1458,404" fill="#6fd" stroke-width="1" />
<circle cx="446" cy="562" r="11" fill="#08d" />
<rect x="1424" y="290" width="9" height="8" fill="#2ca" />
<line x1="1912" y1="154" x2="1907" y2="135" stroke-width="3" stroke="#50a" />
<circle cx="856" cy="197" r="4" fill="#1de" />
<polygon points="1820,903 1814,908 1810,902 1815,898" fill="#6e5" stroke-width="1" />
<line x1="733" y1="652" x2="745" y2="644" stroke-width="5" stroke="#e12" />
<line x1="722" y1="466" x2="712" y2="454" stroke-width="4" stroke="#90b" />
<ellipse cx="1729" cy="402" rx="11" ry="16" fill="#13e" />
<circle cx="1455" cy="529" r="13" fill="#55b" />
<line x1="1192" y1="47" x2="1180" y2="49" stroke-width="2" stroke="#38a" />
<ellipse cx="1181" cy="895" rx="7" ry="12" fill="#a6a" />
<rect x="399" y="200" width="12" height="7" fill="#2c1" />
<polygon points="1675,280 1672,285 1667,288 1661,287 1657,283 1657,276 1661,272 1667,271 1672,274" fill="#033" stroke-width="4" />
<polygon points="1664,454 1632,453" fill="#8c6" stroke-width="5" /><polygon points="1647,470 1648,438" fill="#8c6" stroke-width="5" />
<line x1="28" y1="1061" x2="26" y2="1056" stroke-width="3" stroke="#af5" />
<polygon points="1523,72 1520,81 1513,88 1503,91 1494,88 1487,81 1485,71 1487,62 1494,55 1504,53 1513,55 1520,62" fill="#c8b" stroke-width="4" />
<circle cx="571" cy="328" r="2" fill="#1ce" />
<ellipse cx="7" cy="387" rx="11" ry="18" fill="#f12" />
<circle cx="801" cy="286" r="2" fill="#eea" />
<polygon points="423,415 417,425 405,428 396,421 396,408 405,401 417,404" fill="#f6c" stroke-width="1" /><polygon points="421,421 412,428 400,425 395,414 400,404 412,401 421,408" fill="#f6c" stroke-width="1" />
<rect x="719" y="669" width="1" height="15" fill="#df1" />
<polygon points="103,48 101,54 96,59 89,61 83,59 78,54 77,47 78,41 83,36 90,35 96,36 101,41" fill="#c6f" stroke-width="4" />
<polygon points="1669,734" fill="#0b6" stroke-width="2" /><polygon points="1641,733" fill="#0b6" stroke-width="2" />
<ellipse cx="955" cy="460" rx="17" ry="3" fill="#150" />
<circle cx="704" cy="642" r="15" fill="#6a4" />
<circle cx="1804" cy="484" r="15" fill="#5e5" />
<line x1="212" y1="778" x2="194" y2="787" stroke-width="5" stroke="#4e8" />
<polygon points="41,613 38,622 30,629 20,630 11,626 5,618 5,607 11,599 20,595 30,596 38,603" fill="#0c6" stroke-width="1" />
<polygon points="602,328 600,334 594,338 588,339 582,337 578,331 578,324 582,318 588,316 594,317 600,321" fill="#906" stroke-width="3" />
<polygon points="201,1079 187,1086 187,1071" fill="#481" stroke-width="5" />
<circle cx="1547" cy="94" r="20" fill="#a67" />
<polygon points="170,985 168,991 164,995 159,998 152,998 147,995 143,991 142,984 143,978 147,974 152,971 159,971 164,974 168,978" fill="#5ac" stroke-width="4" />
<circle cx="637" cy="346" r="14" fill="#b2f" />
<ellipse cx="64" cy="614" rx="6" ry="20" fill="#382" />
<polygon points="1512,626 1508,633 1499,635 1492,630 1492,621 1499,616 1508,618" fill="#24c" stroke-width="2" /><polygon points="1511,630 1504,635 1495,633 1492,625 1495,618 1504,616 1511,621" fill="#24c" stroke-width="2" />
<polygon points="1624,246 1622,253 1617,260 1610,264 1603,264 1595,262 1589,257 1586,249 1586,242 1589,234 1595,229 1603,227 1610,227 1617,231 1622,238" fill="#c52" stroke-width="2" />
<ellipse cx="943" cy="268" rx="10" ry="12" fill="#84f" />
<line x1="1006" y1="636" x2="1018" y2="619" stroke-width="5" stroke="#6fb" />
<polygon points="1169,689 1166,695 1159,698 1153,695 1151,688 1153,682 1160,680 1166,682" fill="#74c" stroke-width="3" /><polygon points="1168,692 1163,697 1156,697 1151,692 1151,685 1156,680 1163,680 1168,685" fill="#74c" stroke-width="3" />
<line x1="1814" y1="151" x2="1794" y2="156" stroke-width="2" stroke="#171" />
<polygon points="337,273" fill="#d25" stroke-width="3" /><polygon points="309,272" fill="#d25" stroke-width="3" />
<polygon points="1360,963 1359,963 1359,963 1358,963 1358,963 1358,963 1358,962 1358,962 1358,962 1359,962 1359,962" fill="#1d5" stroke-width="3" />
<polygon points="924,677 918,688 905,691 895,683 895,670 905,662 918,665" fill="#5a9" stroke-width="2" /><polygon points="922,683 912,691 899,688 894,676 899,665 912,662 922,670" fill="#5a9" stroke-width="2" />
<circle cx="1787" cy="1030" r="19" fill="#f95" />
<polygon points="456,40 445,46 445,33" fill="#bec" stroke-width="1" /><polygon points="452,46 442,39 452,33" fill="#bec" stroke-width="1" />
<circle cx="1354" cy="552" r="7" fill="#d6d" />
<ellipse cx="329" cy="158" rx="18" ry="18" fill="#bd6" />
<polygon points="318,219 314,220 315,217" fill="#f24" stroke-width="2" />
<polygon points="1904,137 1900,148 1890,156 1877,156 1867,148 1864,136 1867,125 1877,117 1890,117 1900,125" fill="#a62" stroke-width="3" />
<rect x="84" y="74" width="11" height="16" fill="#916" />
<rect x="1577" y="204" width="15" height="11" fill="#44a" />
<circle cx="995" cy="376" r="7" fill="#350" />
<rect x="1726" y="581" width="1" height="9" fill="#add" />
<rect x="151" y="882" width="15" height="8" fill="#59a" />
<ellipse cx="140" cy="595" rx="7" ry="5" fill="#e26" />
<line x1="942" y1="816" x2="960" y2="798" stroke-width="5" stroke="#c6f" />
<ellipse cx="812" cy="244" rx="10" ry="1" fill="#6f0" />
<polygon points="346,169" fill="#ed2" stroke-width="4" />
<rect x="1156" y="1056" width="18" height="12" fill="#443" />
<line x1="1853" y1="430" x2="1840" y2="417" stroke-width="4" stroke="#f0c" />
<line x1="600" y1="538" x2="582" y2="541" stroke-width="2" stroke="#3d0" />
<ellipse cx="1886" cy="704" rx="13" ry="17" fill="#f17" />
<polygon points="73,452 65,464 50,464 43,451 50,439 65,439" fill="#bb5" stroke-width="2" /><polygon points="70,459 57,467 45,459 45,444 58,437 70,444" fill="#bb5" stroke-width="2" />
<polygon points="228,11 199,27 199,-6" fill="#f02" stroke-width="3" /><polygon points="218,27 190,10 218,-6" fill="#f02" stroke-width="3" />
<line x1="1085" y1="960" x2="1086" y2="960" stroke-width="2" stroke="#06f" />
<polygon points="425,904 421,911 413,912 407,907 407,900 413,895 421,896" fill="#03f" stroke-width="2" /><polygon points="424,907 418,912 410,911 407,903 410,896 418,895 424,900" fill="#03f" stroke-width="2" />
<polygon points="1866,601 1850,616 1836,600 1851,586" fill="#5cb" stroke-width="1" />
<circle cx="44" cy="52" r="7" fill="#ca9" />
<ellipse cx="701" cy="595" rx="10" ry="4" fill="#149" />
<ellipse cx="1638" cy="787" rx="9" ry="11" fill="#d8f" />
<ellipse cx="278" cy="473" rx="6" ry="7" fill="#fae" />
<polygon points="1867,211 1865,212 1865,210 1866,210" fill="#e58" stroke-width="3" /><polygon points="1866,211 1865,211 1865,210 1866,210" fill="#e58" stroke-width="3" />
<line x1="790" y1="619" x2="804" y2="627" stroke-width="1" stroke="#9c3" />
<line x1="921" y1="1073" x2="912" y2="1054" stroke-width="5" stroke="#381" />
<ellipse cx="1389" cy="635" rx="7" ry="8" fill="#b9f" />
<circle cx="551" cy="340" r="18" fill="#451" />
<rect x="897" y="197" width="7" height="3" fill="#010" />
<polygon points="315,917 314,918 312,919 310,919 309,918 309,915 310,914 312,914 314,915" fill="#fa4" stroke-width="3" />
<ellipse cx="852" cy="584" rx="5" ry="17" fill="#a8e" />
<rect x="331" y="1038" width="10" height="6" fill="#e6b" />
</svg>
